<svg version="1.1" id="Layer_1" xmlns="http://www.w3.org/2000/svg" xmlns:xlink="http://www.w3.org/1999/xlink" x="0px" y="0px"
	 viewBox="0 0 528.9 115" style="enable-background:new 0 0 528.9 115;" xml:space="preserve">
<style type="text/css">
	.st0{fill:#FFFFFF;}
	.st1{fill:#1B2D33;}
	.st2{fill:#D47559;}
</style>
<g>
	<path class="st0" d="M264,25.9h-13.1V43h-8.5h-2.5h-10.2v-3c0.1-5.6,2.5-9.7,10-9.7h3V18.1h-5.6c-13.3,0-20.5,8-20.5,22V43h-8.8
		h-12.2V25.9h-13.1V43H174v10.1h8.5v36.5h13.1V53.1h12.2h8.8v36.5h13.1V53.1h10.2h2.5h8.5v36.5H264V53.1h9.9V43H264V25.9z"/>
	<path class="st0" d="M314.6,48.6c-3.3-4.7-9.6-6.7-15-6.7c-12,0-22.9,9.3-22.9,24.3s10.9,24.3,22.9,24.3c5.2,0,11.7-2.1,15-6.7v5.8
		h13.1V43h-13.1V48.6z M302.1,78.3c-6.6,0-12.1-5.3-12.1-12.1c0-6.9,5.5-12,12.1-12c6.1,0,12.1,4.8,12.1,12
		C314.2,73.3,308.5,78.3,302.1,78.3z"/>
	<path class="st0" d="M359.7,54c3.8,0,7.7,1.8,9.8,4.7l9.8-6.9c-4.4-6-11.2-10-19.7-10c-13.6,0-25.6,9.5-25.6,24.3
		s12,24.4,25.6,24.4c8.5,0,15.3-3.9,19.7-10l-9.8-6.9c-2.1,2.9-6,4.7-9.8,4.7c-7.4,0-12.4-5.3-12.4-12.2
		C347.3,59.3,352.3,54,359.7,54z"/>
	<polygon class="st0" points="404.3,25.9 391.2,25.9 391.2,43 382.7,43 382.7,53.1 391.2,53.1 391.2,89.6 404.3,89.6 404.3,53.1 
		414.2,53.1 414.2,43 404.3,43 	"/>
	<rect x="420.7" y="43" class="st0" width="13.1" height="46.6"/>
	<path class="st0" d="M427.2,19c-4.5,0-8.3,3.4-8.3,7.8s3.8,7.9,8.3,7.9c4.6,0,8.3-3.5,8.3-7.9S431.8,19,427.2,19z"/>
	<path class="st0" d="M465.8,54c3.8,0,7.7,1.8,9.8,4.7l9.8-6.9c-4.4-6-11.2-10-19.7-10c-13.6,0-25.6,9.5-25.6,24.3
		s12,24.4,25.6,24.4c8.5,0,15.3-3.9,19.7-10l-9.8-6.9c-2.1,2.9-6,4.7-9.8,4.7c-7.4,0-12.4-5.3-12.4-12.2
		C453.4,59.3,458.4,54,465.8,54z"/>
	<path class="st0" d="M516.3,62.1l-7.7-2c-2.6-0.7-4.6-1.8-4.6-4c0-2.4,2.4-3.9,5.4-3.9c3.1,0,5.7,1.7,5.7,4.8h12.5
		c0.1-11-9.9-15.2-18.4-15.2c-10.8,0-18.3,6.7-18.3,13.9c0,4.9,1.6,11.6,13.6,14.8l6.2,1.5c3.5,0.9,5.1,1.9,5.1,3.9
		c0,2.7-2.9,4.3-6.7,4.3c-4.6,0-6.9-2.9-6.9-5.6h-12.3c0.1,10.3,9.6,15.9,19.4,15.9c9.6,0,19.6-4.8,19.6-14.6
		C528.9,72.1,527.5,65.1,516.3,62.1z"/>
</g>
<polygon class="st1" points="90.1,87.4 73.6,115.1 56.6,87.4 31.5,87.4 54.5,22.5 73.6,22.5 94.7,22.5 115.7,87.4 "/>
<polygon class="st2" points="102.8,11.4 131,98.6 95.6,98.6 88,109.7 146.3,109.7 110.9,0.3 84.3,0.3 73.6,11.4 62,0.3 38.7,0.3 
	0,109.7 58.7,109.7 51.1,98.6 15.7,98.6 46.6,11.4 "/>
</svg>